<svg xmlns="http://www.w3.org/2000/svg" width="67" height="68" fill="none"><g clip-path="url(#clip0_365_135)"><path d="M62.35 28.959c4.43.247 4.455.247 4.455 4.702.025 10.319.024 20.613.05 30.932 0 1.51.073 2.697-2.104 2.598-1.88-.074-3.093-.322-2.697-2.598.297-1.733-.545-2.425-2.203-2.153-2.227.346-2.796-.792-2.548-2.722.272-1.93-.94-2.005-2.4-2.03-1.535-.024-2.6.248-2.327 2.104.322 2.054-.47 2.97-2.598 2.648-1.683-.248-2.475.47-2.227 2.177.272 1.906-.47 2.524-2.45 2.55-7.003.024-7.077.098-7.028-6.855.025-2.178-.718-2.623-2.722-2.623-6.78 0-6.854-.05-6.805 6.78.025 1.98-.396 2.994-2.573 2.697-1.015-.148-2.054-.099-3.069-.025-2.425.198-4.528.198-3.96-3.316.248-1.534-1.162-1.435-2.152-1.336-1.906.198-2.821-.495-2.5-2.474.297-1.93-.692-2.326-2.425-2.302-1.682.025-2.722.322-2.4 2.302.322 1.955-.52 2.746-2.474 2.474-1.906-.272-2.524.693-2.277 2.4.272 1.956-.742 2.252-2.45 2.302-1.905.05-2.35-.693-2.326-2.45.074-11.061.074-22.098 0-33.159-.025-1.93.545-2.796 2.524-2.5 1.98.298 2.302-.791 2.252-2.45-.099-3.068.05-6.136-.05-9.18-.074-1.806.347-2.895 2.4-2.573 2.005.321 2.698-.644 2.401-2.5-.297-1.88.619-2.548 2.376-2.3 1.98.296 2.722-.595 2.45-2.5-.248-1.708.52-2.351 2.202-2.203 1.188.1 2.425-.074 3.613.05 2.474.247 4.256-.124 3.687-3.316C23.723.576 24.91.6 25.999.6c5.024 0 10.022.05 15.046-.024 1.658-.025 2.202.643 1.98 2.128-.372 2.35.766 2.945 2.845 2.697.916-.099 1.856.05 2.772-.025 2.4-.173 4.627-.247 3.959 3.292-.173.866.346 1.534 1.287 1.36 3.959-.692 3.588 1.856 3.34 4.356-.816 1.262-2.103.841-3.241.866-1.634.05-3.292-.074-4.677 1.015-.817 2.053-1.436 4.181-4.182 4.627-.916.148-.817 1.336-.842 2.178-.05 1.954.05 3.885-.025 5.84-.098 2.103.05 3.884 2.673 4.33.742.124 1.336.817 1.46 1.559.42 2.82 2.549 2.35 4.454 2.474 2.03.124 3.44-.47 3.935-2.598.074-.346.322-.668.569-.94 2.895-.297 3.415-3.093 4.999-4.776z" fill="#FF5520"/><path d="M57.649 34.057c-.594 4.528-.594 4.528-5.27 4.528-.842 0-1.659-.05-2.5 0-1.535.099-2.326-.495-2.104-2.079.297-2.128-.692-2.87-2.697-2.623-1.683.198-2.004-.767-1.98-2.202.05-3.34.025-6.657.025-9.997 0-1.064 0-2.252 1.485-2.079 3.86.47 3.316-2.004 3.019-4.355 2.97-1.213 6.038-.297 9.057-.47.272-.025.618.173.668.42.495 2.599 3.217 2.945 4.627 4.628.149 1.534.248 3.044-.099 4.553-1.311 1.707-3.217 1.064-4.924 1.213-1.336.123-2.846-.248-3.143 1.83-.47 3.218.025 4.727 2.079 5.445.693.247 1.41.396 1.757 1.188z" fill="#FDFDFC"/><path d="M57.649 34.057c-5.073-.52-5.098-.52-5.073-5.766.025-4.454-.569-3.885 4.009-3.935 1.757-.025 3.49.025 5.246.05.173 1.51.346 3.044.52 4.553-.05.173-.124.346-.124.52-.371 4.28-.346 4.28-4.578 4.578zm4.306-14.204c-.718-.075-1.46-.297-2.178-.223-1.905.198-2.772-.544-2.524-2.5.198-1.657-.544-2.375-2.202-2.251-2.475.198-4.974-.371-7.424.37 1.212-1.533 2.895-.692 4.38-.816 1.732-.148 3.49-.074 5.221-.074.248.124.47.297.743.347 4.305.692 4.305.668 3.984 5.147z" fill="#FF5520"/><path d="M29.142 34.056c-1.04 4.554-1.04 4.48-6.112 4.579-2.4.049-4.257-.025-3.836-3.267.223-1.732-1.336-1.51-2.375-1.435-1.708.123-2.302-.57-2.252-2.252.099-3.242.074-6.508 0-9.75-.05-1.608.396-2.524 2.177-2.301 1.93.247 2.772-.57 2.524-2.524-.222-1.757.693-2.277 2.302-2.178 1.212.074 2.425.1 3.613-.025 2.375-.247 4.082.124 3.612 3.143-.123.792.223 1.336 1.188 1.56 3.836.89 3.836.94 3.49 4.775-1.188 1.683-2.995 1.089-4.603 1.262-1.361.148-3.094-.495-3.49 1.757-.544 3.192.025 4.751 2.277 5.568.57.198 1.188.42 1.485 1.088z" fill="#FDFDFB"/><path d="M29.142 34.056c-5.122-.544-5.147-.544-5.147-5.963 0-4.207-.446-3.687 3.637-3.712 1.93-.025 3.885 0 5.816 0 .05 2.227 0 4.454.222 6.657.223 2.276-.495 3.315-2.87 2.944-.545-.123-1.114.025-1.658.075z" fill="#FF5520"/></g><defs><clipPath id="clip0_365_135"><path fill="#fff" transform="translate(.066 .427)" d="M0 0h66.912v66.863H0z"/></clipPath></defs></svg>