<svg xmlns="http://www.w3.org/2000/svg" width="22" height="22" tabwidth="18" tabheight="18" fill="none"><path d="M16.994 20.076a1.617 1.617 0 01-.164.011H5.006V22H3.007v-1.907H4.99V18.19c-.036 0-.07-.005-.106-.005H2.116c-.035 0-.07.01-.105.016-.006-.05-.018-.095-.018-.145v-2.738H0v-8.62h1.993V0H4.99v1.907h1.998v1.907h8.002V1.913h2.005V0h3.001v6.692H22v8.622h-1.999v2.743c0 .05-.006.095-.012.145-.029-.005-.058-.016-.094-.016h-2.802c-.029 0-.052.005-.093.01v1.758c0 .039-.006.084-.006.123zm4.525-12.52H.475V8.61c.205 0 .398-.005.592 0 .164.006.217.056.21.208 0 .6 0 1.2-.005 1.806v.14h.147c.263 0 .533-.005.797-.005.158 0 .21.05.21.196 0 .219 0 .443-.005.662v.19c.047 0 .076.006.1.006h.908c.205 0 .264.056.252.253 0 .028-.006.061-.006.09v.746h4.186v-.769c0-.325 0-.325.346-.314.228.006.457 0 .691 0v-.847c0-.157.047-.208.212-.208.27 0 .539.006.808.012.223.005.27-.045.27-.258-.006-.573-.012-1.145-.012-1.711 0-.146.047-.191.2-.191.275 0 .55.006.82 0 .252 0 .27.017.27.258 0 .583 0 1.172-.006 1.756v.134c.276 0 .54.006.803 0 .352-.005.37.012.364.354-.006.235 0 .471 0 .718h1.266v1.066h4.162v-.875c0-.163.047-.208.217-.208.2.006.398.006.598.006h.234v-.853c0-.157.047-.208.211-.208.282 0 .563 0 .844.006.194 0 .229-.028.229-.213 0-.606 0-1.212-.006-1.818V8.61h1.114c.023-.353.023-.7.023-1.054zm-11.513 7.746v2.867h2v-2.867h.99v-1.907H9.01v1.907h.996zm6.982 4.78c.621 0 1.242.005 1.858.005h.147V22h-2.005c.006-.645.006-1.285 0-1.918 0 0 .006-.006 0 0z" fill="#fff"/><path d="M2.01 18.191a.878.878 0 00-.011.123v1.767H0v-1.895c.041 0 .076-.006.111-.006h1.777c.04-.006.082.011.123.011 0 0 0 .006 0 0zm17.98.006c.023-.006.046-.017.064-.017h1.94v1.907h-1.993V18.32c0-.045-.006-.084-.012-.123 0 0 0-.006 0 0zM4.18 9.828h1.025c.334-.006.334-.006.334.32v.88c0 .157-.017.18-.181.18H4.332c-.153 0-.182-.028-.182-.174v-.982c0-.151-.03-.18-.188-.18H3.02c-.194 0-.235-.033-.235-.213v-.981c0-.157.041-.197.205-.197h1.003c.14 0 .181.04.181.18 0 .342 0 .684-.005 1.026.011.04.011.079.011.14zm10.264-1.487v1.33h1.342v1.34h-1.348V9.687h-1.36V8.335c.452.006.897.006 1.366.006z" fill="#fff"/></svg>