<svg xmlns="http://www.w3.org/2000/svg" width="55" height="55" fill="none"><path d="M42.485 50.19a4.04 4.04 0 01-.41.028H12.514V55H7.518v-4.768h4.953v-4.754c-.088 0-.175-.014-.263-.014H5.29c-.088 0-.175.028-.263.042-.015-.126-.044-.238-.044-.364v-6.844H0V16.744h4.983V0h7.488v4.768h4.998v4.768h20.004V4.782h5.012V0h7.503v16.73H55v21.554h-4.997v6.858c0 .126-.015.238-.03.364-.073-.014-.146-.042-.234-.042h-7.005c-.074 0-.132.014-.235.028v4.389c0 .099-.014.21-.014.309zm11.313-31.3H1.187v2.636c.513 0 .997-.014 1.48 0 .41.014.542.14.528.519 0 1.5 0 3-.015 4.515v.351h.366c.66 0 1.334-.014 1.994-.014.395 0 .527.126.527.49 0 .548 0 1.109-.015 1.656v.476c.118 0 .191.014.25.014h2.271c.513 0 .66.14.63.631 0 .07-.014.155-.014.225v1.865h10.463v-1.921c0-.814 0-.814.865-.786.572.014 1.143 0 1.73 0V27.43c0-.393.116-.519.527-.519.674 0 1.348.014 2.022.028.557.014.674-.112.674-.645-.014-1.43-.029-2.86-.029-4.277 0-.365.117-.477.498-.477.689 0 1.378.014 2.052 0 .63 0 .674.042.674.645 0 1.459 0 2.931-.015 4.39v.336c.69 0 1.349.014 2.008 0 .88-.014.923.028.909.883-.015.59 0 1.178 0 1.796h3.165v2.664h10.405v-2.188c0-.406.117-.519.542-.519.499.014.997.014 1.495.014h.587V27.43c0-.393.117-.519.527-.519.704 0 1.407 0 2.11.014.484 0 .572-.07.572-.533 0-1.514 0-3.029-.015-4.543v-.323h2.785c.058-.884.058-1.753.058-2.636zM25.016 38.256v7.166h4.997v-7.166h2.477v-4.768h-9.965v4.768h2.491zM42.47 50.204c1.553 0 3.107.014 4.645.014h.367V55H42.47a260.79 260.79 0 000-4.796c.014-.014 0 0 0 0z" fill="var(--primary)"/><path d="M5.027 45.478a2.14 2.14 0 00-.03.308v4.418H0v-4.74c.103 0 .19-.014.278-.014h4.44c.103-.014.206.028.309.028 0 .014 0 0 0 0zm44.947.014c.058-.014.117-.042.16-.042h4.852v4.768h-4.983v-4.417c0-.113-.015-.21-.03-.309 0-.014 0 0 0 0zM10.449 24.57h2.564c.836-.015.836-.015.836.799v2.201c0 .393-.044.449-.454.449H10.83c-.381 0-.454-.07-.454-.435V25.13c0-.378-.074-.449-.47-.449H7.548c-.483 0-.586-.084-.586-.533v-2.454c0-.392.103-.49.513-.49H9.98c.352 0 .454.098.454.448 0 .856 0 1.711-.014 2.567.029.098.029.196.029.35zm25.661-3.717v3.323h3.356v3.352h-3.37v-3.31h-3.4v-3.38c1.128.015 2.242.015 3.414.015z" fill="var(--primary)"/></svg>