<svg xmlns="http://www.w3.org/2000/svg" width="50" height="50" fill="none"><path d="M13.484 5.605c2.533.601 4.338-.477 5.843-2.383.501-.652 1.153-1.203 1.78-1.755a5.773 5.773 0 017.773.075c1.154 1.079 2.207 2.282 3.41 3.335.452.402 1.129.677 1.73.728 1.58.1 3.185.025 4.765.05a5.535 5.535 0 015.441 5.441c.026 1.63-.05 3.26.05 4.89.026.526.276 1.128.627 1.53 1.029 1.153 2.182 2.18 3.26 3.31 2.408 2.507 2.408 5.641.05 8.174-.05.05-.1.125-.175.175-3.285 2.257-4.213 5.366-3.837 9.278.301 3.335-2.357 5.993-5.692 5.667-3.912-.376-6.795.777-9.328 3.812-2.357 2.808-5.717 2.632-8.375.05-.802-.778-1.655-1.53-2.382-2.407-.903-1.079-1.93-1.58-3.385-1.43-1.128.125-2.257.025-3.385.025-3.586-.025-5.893-2.307-5.918-5.867 0-1.254-.075-2.508.025-3.762.1-1.203-.326-2.056-1.204-2.833-.902-.802-1.73-1.705-2.582-2.558-2.633-2.683-2.633-5.817 0-8.525.927-.953 1.855-1.931 2.858-2.834.677-.602.978-1.279.928-2.181-.075-1.455-.025-2.934 0-4.389-.05-3.184 2.332-5.566 5.466-5.616.753-.026 1.505 0 2.257 0zm11.56 6.419c-7.548.2-12.688 5.416-12.738 12.914-.05 9.403 8.801 14.618 17.026 11.835.827-.276 1.404-.727 1.454-1.655.025-.928-.602-1.329-1.304-1.78-1.555-1.003-3.26-1.956-4.488-3.285-2.759-2.984-2.733-7.397.025-10.356 1.254-1.33 2.959-2.257 4.513-3.26.727-.476 1.48-.928 1.204-1.805-.176-.602-.777-1.354-1.354-1.555-1.38-.527-2.884-.727-4.338-1.053z" fill="var(--primary)"/></svg>