<svg width="67" height="72" fill="none" xmlns="http://www.w3.org/2000/svg"><g clip-path="url(#clip0_501_547)"><path d="M65.963 47.277c0 .919.026 1.811.026 2.73.184.21.184.446.184.709v4.016c0 .262 0 .525-.21.735-.263.236-.552.184-.867.184h-3.675c-.656 0-.708.052-.708.708v3.675c0 .289.026.604-.184.866-.262.237-.551.184-.866.184h-3.675c-.656 0-.709.053-.709.709v3.675c0 .288.026.603-.184.866-.288.263-.63.21-.97.21h-8.847c-.866 0-.892 0-.892.892v3.518c0 .289.026.604-.21.866-.236.21-.525.21-.814.21H28.636c-.288 0-.577 0-.813-.21-.236-.262-.184-.551-.21-.866v-3.675c0-.656-.053-.709-.709-.709h-9.003c-.342 0-.683.053-.972-.21-.236-.262-.183-.551-.183-.866v-3.675c0-.656-.053-.709-.71-.709h-3.674c-.289 0-.604.027-.866-.183-.236-.263-.184-.552-.184-.867v-3.674c0-.657-.052-.71-.709-.71H6.928c-.288 0-.603.027-.866-.183-.262-.289-.21-.63-.21-.971v-8.846c0-.866 0-.893-.892-.893H1.442c-.288 0-.603.027-.866-.21-.21-.236-.21-.525-.21-.813V29.034c0-.289 0-.577.21-.814.263-.236.551-.183.866-.21h3.675c.657 0 .709-.052.709-.708v-9.004c0-.341-.052-.682.21-.971.263-.236.551-.184.866-.184h3.675c.656 0 .709-.052.709-.709V12.76c0-.29-.026-.604.184-.867.262-.236.55-.183.866-.183h3.675c.656 0 .708-.053.708-.71V7.327c0-.289-.026-.604.184-.866.289-.263.63-.21.971-.21h8.846c.867 0 .893 0 .893-.893V1.84c0-.289-.026-.604.21-.866.236-.21.525-.21.814-.21h14.725c.289 0 .578 0 .814.21.236.262.184.551.21.866v3.675c0 .656.052.709.709.709h9.003c.341 0 .683-.053.971.21.236.262.184.55.184.866v3.675c0 .656.053.708.709.708h3.675c.288 0 .603-.026.866.184.236.263.184.551.184.866v3.675c0 .656.052.709.708.709h3.675c.289 0 .604-.026.866.184.21.236.21.525.21.813v3.859c0 .289 0 .578-.21.814-.288.262-.63.21-.97.21h-8.847c-.866 0-.892 0-.892.892v3.518c0 .288.026.603-.21.866-.315.262-.683.21-1.024.21H39.95c-1.05 0-1.05 0-1.05 1.05v3.386c0 .289 0 .577-.21.814-.289.262-.63.183-.971.21h-8.846c-.867 0-.893 0-.893.892V38.3c0 .656.053.709.709.709h9.003c.342 0 .683-.053.972.21.236.262.21.55.21.866v3.57c0 .787.026.813.84.813h14.28c.34 0 .734-.052 1.023.21.236.263.183.552.183.867v3.675c0 .656.053.708.71.708h3.674c.578 0 .63-.078.656-.656.027-.472 0-.945.027-1.417.026-.368.21-.604.603-.63 1.523-.053 3.072-.027 4.594 0 .262-.105.394-.053.499.052z" fill="#FF5520"/></g><defs><clipPath id="clip0_501_547"><path fill="#fff" transform="translate(.498 .843)" d="M0 0h65.701v71.109H0z"/></clipPath></defs></svg>