<svg xmlns="http://www.w3.org/2000/svg" width="197" height="203" fill="none"><g filter="url(#prefooter-icon-base)"><path d="M190.962 95.481c0 8.07-11.604 14.506-13.594 21.942-2.059 7.7 4.714 19.064.813 25.806-3.956 6.839-17.228 6.631-22.77 12.182-5.543 5.55-5.343 18.814-12.182 22.77-6.742 3.901-18.106-2.87-25.806-.812-7.441 1.989-13.877 13.593-21.942 13.593-8.064 0-14.505-11.604-21.941-13.593-7.7-2.058-19.065 4.713-25.807.812-6.839-3.956-6.63-17.228-12.181-22.77-5.55-5.543-18.815-5.343-22.77-12.182-3.901-6.742 2.871-18.106.812-25.806C11.606 109.982 0 103.546 0 95.481c0-8.064 11.606-14.505 13.594-21.941 2.06-7.7-4.713-19.065-.813-25.807 3.956-6.839 17.229-6.63 22.77-12.181 5.543-5.55 5.343-18.815 12.182-22.77 6.742-3.901 18.106 2.871 25.807.812C80.98 11.606 87.418 0 95.48 0c8.063 0 14.506 11.606 21.942 13.594 7.7 2.06 19.064-4.713 25.806-.813 6.839 3.958 6.631 17.228 12.182 22.772 5.55 5.544 18.814 5.341 22.77 12.18 3.901 6.742-2.872 18.106-.813 25.807 1.99 7.435 13.594 13.873 13.594 21.941z" fill="#FF5520"/></g><defs><filter id="prefooter-icon-base" x="0" y="0" width="196.679" height="202.655" filterUnits="userSpaceOnUse" color-interpolation-filters="sRGB"><feFlood flood-opacity="0" result="BackgroundImageFix"/><feColorMatrix in="SourceAlpha" type="matrix" values="0 0 0 0 0 0 0 0 0 0 0 0 0 0 0 0 0 0 127 0" result="hardAlpha"/><feOffset dx="5.716" dy="11.692"/><feComposite in2="hardAlpha" operator="out"/><feColorMatrix type="matrix" values="0 0 0 0 0.0980392 0 0 0 0 0.0823529 0 0 0 0 0.290196 0 0 0 1 0"/><feBlend mode="normal" in2="BackgroundImageFix" result="effect1_dropShadow_564_1101"/><feBlend mode="normal" in="SourceGraphic" in2="effect1_dropShadow_564_1101" result="shape"/></filter></defs></svg>