<svg width="37" height="26" fill="none" xmlns="http://www.w3.org/2000/svg"><g filter="url(#filter0_d_1_1010)"><path d="M12.818 22.886a.63.63 0 00.63-.63c0-3.368.433-5.86 1.3-7.474.864-1.614 1.886-2.416 3.065-2.416 1.279 0 2.332.828 3.176 2.49.843 1.66 1.262 4.103 1.262 7.327 0 .388.315.703.704.703H34.89a.776.776 0 00.776-.776c0-6.944-1.67-12.23-5.01-15.858C27.317 2.623 23.06.814 17.887.825A17.516 17.516 0 005.833 5.48a16.543 16.543 0 00-4.256 6.723A29.053 29.053 0 00.006 22.256c0 .348.282.63.63.63h12.182z" fill="#fff"/><path d="M17.883 1.193h.004c5.077-.01 9.233 1.76 12.5 5.308 3.255 3.537 4.912 8.72 4.912 15.61a.408.408 0 01-.408.407H22.955a.335.335 0 01-.336-.335c0-3.245-.42-5.756-1.303-7.494-.873-1.72-2.026-2.69-3.503-2.69-1.38 0-2.5.947-3.39 2.61-.91 1.696-1.343 4.261-1.343 7.647a.262.262 0 01-.262.262H.637a.262.262 0 01-.263-.262h0v-.008a28.685 28.685 0 011.552-9.924h0l.001-.004a16.175 16.175 0 014.159-6.572 17.148 17.148 0 0111.797-4.555z" stroke="#19154A" stroke-width=".735"/></g><defs><filter id="filter0_d_1_1010" x="0" y=".824" width="36.822" height="24.425" filterUnits="userSpaceOnUse" color-interpolation-filters="sRGB"><feFlood flood-opacity="0" result="BackgroundImageFix"/><feColorMatrix in="SourceAlpha" values="0 0 0 0 0 0 0 0 0 0 0 0 0 0 0 0 0 0 127 0" result="hardAlpha"/><feOffset dx="1.156" dy="2.364"/><feComposite in2="hardAlpha" operator="out"/><feColorMatrix values="0 0 0 0 0.0980392 0 0 0 0 0.0823529 0 0 0 0 0.290196 0 0 0 1 0"/><feBlend in2="BackgroundImageFix" result="effect1_dropShadow_1_1010"/><feBlend in="SourceGraphic" in2="effect1_dropShadow_1_1010" result="shape"/></filter></defs></svg>