<svg xmlns="http://www.w3.org/2000/svg" width="30" height="32" fill="none"><g filter="url(#filter0_d_100_1534)"><path d="M14.046 29.026c7.758 0 14.046-6.28 14.046-14.026 0-7.747-6.288-14.026-14.046-14.026C6.29.974 0 7.254 0 15c0 7.746 6.289 14.026 14.046 14.026z" fill="#fff"/><path d="M27.731 15c0 7.546-6.126 13.665-13.685 13.665C6.488 28.665.361 22.546.361 15c0-7.547 6.127-13.665 13.685-13.665 7.559 0 13.685 6.118 13.685 13.665z" stroke="#3B0F46" stroke-width=".723"/></g><path d="M22.245 14.575l.002-.009.001-.009a.555.555 0 01.445-.468.549.549 0 01.226.006.647.647 0 01.482.698 9.658 9.658 0 01-3.28 5.485 9.6 9.6 0 01-12.045.196A9.655 9.655 0 014.62 15.09a.583.583 0 01.431-.684l.008-.002.008-.003a.557.557 0 01.712.43h0l.002.012a8.472 8.472 0 003.044 4.69 8.427 8.427 0 0010.53-.172 8.474 8.474 0 002.89-4.787zM9.391 9.93a1.448 1.448 0 01-.434-.976c.016-.37.171-.72.434-.976a1.409 1.409 0 011.968 0c.263.257.418.606.434.976-.015.37-.171.72-.434.976a1.409 1.409 0 01-1.968 0zm8.061-2.354h.009a1.415 1.415 0 011.006.397l.172-.178-.172.178a1.405 1.405 0 01.428.983 1.441 1.441 0 01-2.875 0 1.397 1.397 0 01.89-1.281c.172-.068.357-.102.542-.099z" fill="#3B0F46" stroke="#3B0F46" stroke-width=".516"/><defs><filter id="filter0_d_100_1534" x="0" y=".974" width="29.228" height="30.375" filterUnits="userSpaceOnUse" color-interpolation-filters="sRGB"><feFlood flood-opacity="0" result="BackgroundImageFix"/><feColorMatrix in="SourceAlpha" type="matrix" values="0 0 0 0 0 0 0 0 0 0 0 0 0 0 0 0 0 0 127 0" result="hardAlpha"/><feOffset dx="1.135" dy="2.323"/><feComposite in2="hardAlpha" operator="out"/><feColorMatrix type="matrix" values="0 0 0 0 0.231373 0 0 0 0 0.0588235 0 0 0 0 0.27451 0 0 0 1 0"/><feBlend mode="normal" in2="BackgroundImageFix" result="effect1_dropShadow_100_1534"/><feBlend mode="normal" in="SourceGraphic" in2="effect1_dropShadow_100_1534" result="shape"/></filter></defs></svg>