<svg width="33" height="33" fill="none" xmlns="http://www.w3.org/2000/svg"><g filter="url(#filter0_d_1_1008)"><path d="M14.598 1.202a1.662 1.662 0 012.804 0l2.127 3.341c.38.597 1.096.888 1.784.725l4.006-.944a1.662 1.662 0 011.987 2.045l-.923 3.469c-.195.732.13 1.503.79 1.875l3.26 1.84c1.127.635 1.127 2.259 0 2.895l-3.26 1.839a1.662 1.662 0 00-.79 1.875l.923 3.469a1.662 1.662 0 01-1.988 2.045l-4.005-.944a1.662 1.662 0 00-1.784.725l-2.127 3.34a1.662 1.662 0 01-2.804 0l-2.127-3.34a1.662 1.662 0 00-1.784-.725l-4.006.944a1.662 1.662 0 01-1.987-2.045l.923-3.469a1.662 1.662 0 00-.79-1.875l-3.26-1.84c-1.127-.635-1.127-2.259 0-2.895l3.26-1.839c.66-.372.985-1.143.79-1.875l-.923-3.469A1.662 1.662 0 016.68 4.324l4.006.944a1.662 1.662 0 001.784-.725l2.127-3.34z" fill="#fff"/><path d="M14.961 1.434a1.231 1.231 0 012.078 0l2.127 3.34a2.093 2.093 0 002.246.914l4.006-.945a1.231 1.231 0 011.472 1.515l-.924 3.469a2.093 2.093 0 00.995 2.362l3.26 1.838a1.231 1.231 0 010 2.146l-3.26 1.838a2.093 2.093 0 00-.995 2.362l.924 3.469a1.231 1.231 0 01-1.473 1.515l-4.005-.945a2.093 2.093 0 00-2.246.913l-2.127 3.341c-.484.76-1.594.76-2.078 0l-2.127-3.34a2.093 2.093 0 00-2.246-.914l-4.005.945a1.231 1.231 0 01-1.473-1.515l.924-3.469a2.093 2.093 0 00-.995-2.362l-3.26-1.838a1.231 1.231 0 010-2.146l3.26-1.838a2.093 2.093 0 00.995-2.362L5.11 6.258a1.231 1.231 0 011.473-1.515l4.005.945a2.093 2.093 0 002.246-.913l2.127-3.341z" stroke="#19154A" stroke-width=".862"/></g><defs><filter id="filter0_d_1_1008" x=".722" y=".433" width="31.911" height="31.905" filterUnits="userSpaceOnUse" color-interpolation-filters="sRGB"><feFlood flood-opacity="0" result="BackgroundImageFix"/><feColorMatrix in="SourceAlpha" values="0 0 0 0 0 0 0 0 0 0 0 0 0 0 0 0 0 0 127 0" result="hardAlpha"/><feOffset dx="1.354" dy="2.77"/><feComposite in2="hardAlpha" operator="out"/><feColorMatrix values="0 0 0 0 0.0980392 0 0 0 0 0.0823529 0 0 0 0 0.290196 0 0 0 1 0"/><feBlend in2="BackgroundImageFix" result="effect1_dropShadow_1_1008"/><feBlend in="SourceGraphic" in2="effect1_dropShadow_1_1008" result="shape"/></filter></defs></svg>