<svg width="23" height="36" fill="none" xmlns="http://www.w3.org/2000/svg"><g filter="url(#filter0_d_1_1011)"><path d="M21.358 11.796a.623.623 0 00-.555-.323l-9.284.204L16.039.854a.603.603 0 00-.056-.579A.608.608 0 0015.47 0H3.516a.612.612 0 00-.612.522L.005 19.215a.608.608 0 00.142.475.612.612 0 00.475.218h8.473L6.447 32.25a.613.613 0 00.603.75.617.617 0 00.512-.27L21.32 12.412a.612.612 0 00.038-.617z" fill="#fff"/><path d="M11.01 12.025l.199-.477L15.729.725l.002-.003a.267.267 0 00-.025-.256L15.7.459h0a.27.27 0 00-.228-.123H3.512h0a.276.276 0 00-.276.236v.002h0L.338 19.262a.271.271 0 00.064.208l.003.004h0a.275.275 0 00.213.098h8.893l-.088.407L6.776 32.32v.005h0a.276.276 0 00.27.338h.005a.28.28 0 00.233-.123l3.725-20.516zm0 0l.516-.012 9.282-.204h.001a.285.285 0 01.251.144.277.277 0 01-.019.272s0 0 0 0L7.284 32.542l3.725-20.516z" stroke="#19154A" stroke-width=".672"/></g><defs><filter id="filter0_d_1_1011" x="0" y="0" width="22.48" height="35.162" filterUnits="userSpaceOnUse" color-interpolation-filters="sRGB"><feFlood flood-opacity="0" result="BackgroundImageFix"/><feColorMatrix in="SourceAlpha" values="0 0 0 0 0 0 0 0 0 0 0 0 0 0 0 0 0 0 127 0" result="hardAlpha"/><feOffset dx="1.057" dy="2.162"/><feComposite in2="hardAlpha" operator="out"/><feColorMatrix values="0 0 0 0 0.0980392 0 0 0 0 0.0823529 0 0 0 0 0.290196 0 0 0 1 0"/><feBlend in2="BackgroundImageFix" result="effect1_dropShadow_1_1011"/><feBlend in="SourceGraphic" in2="effect1_dropShadow_1_1011" result="shape"/></filter></defs></svg>