<svg width="19" height="30" fill="none" xmlns="http://www.w3.org/2000/svg"><g filter="url(#filter0_d_1_1012)"><path d="M13.714 27c1.459 0 2.593-1.233 3.215-2.553.343-.728.713-1.399.713-2.847 0-2.7-1.286-2.7-1.286-5.4s1.286-2.7 1.286-5.4-1.286-2.7-1.286-5.4c0-1.448.37-2.12.713-2.847C17.69 1.233 16.459 0 15 0H3.928C2.468 0 1.335 1.233.713 2.553.37 3.28 0 3.952 0 5.4c0 2.7 1.286 2.7 1.286 5.4S0 13.5 0 16.2s1.286 2.7 1.286 5.4c0 1.448-.37 2.12-.713 2.847-.622 1.32.61 2.553 2.069 2.553h11.072z" fill="#fff"/><path d="M16.645 24.314c-.606 1.285-1.659 2.373-2.931 2.373H2.642c-.646 0-1.23-.274-1.579-.674-.34-.39-.458-.897-.207-1.432l.07-.147c.328-.687.674-1.414.674-2.834 0-1.418-.344-2.142-.674-2.835l-.002-.005c-.313-.655-.61-1.281-.61-2.56 0-1.28.297-1.905.61-2.56l.002-.005c.33-.693.674-1.418.674-2.835 0-1.418-.344-2.142-.674-2.835L.924 7.96C.61 7.305.314 6.68.314 5.4S.61 3.497.925 2.835l.07-.149C1.603 1.401 2.657.313 3.929.313H15c.646 0 1.23.274 1.578.674.34.39.46.897.207 1.432l-.07.146c-.327.688-.673 1.414-.673 2.835 0 1.418.344 2.142.674 2.835l.002.005c.312.655.61 1.28.61 2.56 0 1.279-.298 1.905-.61 2.56l-.002.005c-.33.693-.674 1.417-.674 2.835s.344 2.142.674 2.835l.002.004c.312.656.61 1.282.61 2.56 0 1.28-.297 1.904-.612 2.566l-.07.149z" stroke="#26103D" stroke-width=".627"/></g><defs><filter id="filter0_d_1_1012" x="0" y="0" width="18.627" height="29.015" filterUnits="userSpaceOnUse" color-interpolation-filters="sRGB"><feFlood flood-opacity="0" result="BackgroundImageFix"/><feColorMatrix in="SourceAlpha" type="matrix" values="0 0 0 0 0 0 0 0 0 0 0 0 0 0 0 0 0 0 127 0" result="hardAlpha"/><feOffset dx=".985" dy="2.015"/><feComposite in2="hardAlpha" operator="out"/><feColorMatrix type="matrix" values="0 0 0 0 0.14902 0 0 0 0 0.0627451 0 0 0 0 0.239216 0 0 0 1 0"/><feBlend mode="normal" in2="BackgroundImageFix" result="effect1_dropShadow_1_1012"/><feBlend mode="normal" in="SourceGraphic" in2="effect1_dropShadow_1_1012" result="shape"/></filter></defs></svg>